<?xml version="1.0" encoding="UTF-8"?>
<!DOCTYPE svg PUBLIC "-//W3C//DTD SVG 1.1//EN" "http://www.w3.org/Graphics/SVG/1.1/DTD/svg11.dtd">
<!-- Creator: CorelDRAW -->
<svg xmlns="http://www.w3.org/2000/svg" xml:space="preserve" width="16.9333mm" height="16.9333mm" version="1.1" style="shape-rendering:geometricPrecision; text-rendering:geometricPrecision; image-rendering:optimizeQuality; fill-rule:evenodd; clip-rule:evenodd"
viewBox="0 0 1692.26 1692.26"
 xmlns:xlink="http://www.w3.org/1999/xlink"
 xmlns:xodm="http://www.corel.com/coreldraw/odm/2003">
 <defs>
  <style type="text/css">
   <![CDATA[
    .fil0 {fill:#1C1C1C}
    .fil1 {fill:#ECECEC;fill-rule:nonzero}
   ]]>
  </style>
 </defs>
 <g id="Camada_x0020_1">
  <metadata id="CorelCorpID_0Corel-Layer"/>
  <g id="_2332521376064">
   <rect class="fil0" x="0" y="0" width="1692.26" height="1692.26"/>
   <polygon class="fil1" points="243.7,859.29 243.7,826.41 508.32,691.59 508.32,744.24 305.32,842.03 306.96,838.75 306.96,846.94 305.32,843.67 508.32,941.46 508.32,994.11 "/>
   <polygon id="_1" class="fil1" points="759.91,566.7 624.33,1070.48 579.86,1070.48 715.55,566.7 "/>
   <path id="_2" class="fil1" d="M817.39 1125.55l0 -433.96 46.87 0 0 50.14 5.79 0c3.57,-5.5 8.48,-12.43 14.85,-21.02 6.36,-8.58 15.52,-16.3 27.57,-23.05 11.96,-6.76 28.26,-10.13 48.8,-10.13 26.52,0 49.96,6.66 70.21,19.87 20.35,13.31 36.17,32.12 47.54,56.51 11.28,24.39 16.98,53.14 16.98,86.31 0,33.47 -5.7,62.4 -16.98,86.8 -11.37,24.49 -27.19,43.39 -47.25,56.7 -20.16,13.4 -43.39,20.06 -69.73,20.06 -20.25,0 -36.45,-3.38 -48.7,-10.12 -12.15,-6.85 -21.51,-14.56 -28.15,-23.25 -6.57,-8.67 -11.57,-15.91 -15.14,-21.7l-4.15 0 0 166.83 -48.51 0zm47.73 -276.1c0,23.82 3.48,44.75 10.42,62.97 7.04,18.14 17.16,32.31 30.66,42.53 13.4,10.22 29.8,15.24 49.28,15.24 20.26,0 37.23,-5.31 50.83,-16.11 13.69,-10.7 23.91,-25.26 30.85,-43.49 6.95,-18.32 10.42,-38.67 10.42,-61.14 0,-22.18 -3.48,-42.23 -10.22,-60.17 -6.76,-17.84 -16.98,-32.02 -30.57,-42.53 -13.69,-10.41 -30.76,-15.72 -51.31,-15.72 -19.77,0 -36.26,5.02 -49.76,14.95 -13.4,9.93 -23.54,23.73 -30.38,41.46 -6.85,17.75 -10.22,38.39 -10.22,62.01z"/>
   <polygon id="_3" class="fil1" points="1448.56,859.29 1183.94,994.11 1183.94,941.46 1386.94,843.67 1385.3,846.94 1385.3,838.75 1386.94,842.03 1183.94,744.24 1183.94,691.59 1448.56,826.41 "/>
  </g>
 </g>
</svg>
